PathFileType	4	(X/Y/Z)	D:\Documents\Paper\paper_current\paper_step_1_data\data_step_3\marker\30DL\subject_01.tsv
DataRate	CameraRate	NumFrames	NumMarkers	Units	OrigDataRate	OrigDataStartFrame	OrigNumFrames
200	200	6	43	mm	200	3478	200
Frame#	Time	Top.Head			L.Acromium			R.Acromium			Sternum			L.ASIS			R.ASIS			V.Sacral			R.Knee.Lat			R.Knee.Med			L.Knee.Lat			L.Knee.Med			L.Ankle.Lat			L.Toe.Tip			R.Heel			R.Ankle.Med			R.Ankle.Lat			L.Toe.Med			L.Toe.Lat			L.Heel			L.Ankle.Med			L.Shank1			L.Shank2			R.Toe.Tip			R.Toe.Med			R.Toe.Lat			L.Thigh2			L.Thigh1			L.Thigh3			R.Thigh3			R.Thigh1			R.Thigh2			R.Shank1			R.Shank2			R.Shank3			L.Shank3			L.Shank4			R.Shank4			L.Thigh4			R.Thigh4			R.Heel.Lat			R.Heel.Med			L.Heel.Lat			L.Heel.Med		
		X1	Y1	Z1	X2	Y2	Z2	X3	Y3	Z3	X4	Y4	Z4	X5	Y5	Z5	X6	Y6	Z6	X7	Y7	Z7	X8	Y8	Z8	X9	Y9	Z9	X10	Y10	Z10	X11	Y11	Z11	X12	Y12	Z12	X13	Y13	Z13	X14	Y14	Z14	X15	Y15	Z15	X16	Y16	Z16	X17	Y17	Z17	X18	Y18	Z18	X19	Y19	Z19	X20	Y20	Z20	X21	Y21	Z21	X22	Y22	Z22	X23	Y23	Z23	X24	Y24	Z24	X25	Y25	Z25	X26	Y26	Z26	X27	Y27	Z27	X28	Y28	Z28	X29	Y29	Z29	X30	Y30	Z30	X31	Y31	Z31	X32	Y32	Z32	X33	Y33	Z33	X34	Y34	Z34	X35	Y35	Z35	X36	Y36	Z36	X37	Y37	Z37	X38	Y38	Z38	X39	Y39	Z39	X40	Y40	Z40	X41	Y41	Z41	X42	Y42	Z42	X43	Y43	Z43
4076	20.375	-672.393	1647.589	248.284	-744.354	1419.658	2.574	-936.323	1443.064	274.79	-774.774	1344.468	198.708	-733.825	921.953	99.931	-888.327	942.739	278.002	-941.856	967.952	81.912	-882.669	494.718	337.142	-800.993	486.179	259.973	-793.453	474.591	40.936	-854.208	466.918	135.055	-856.506	96.446	49.916	-714.953	53.464	178.383	-1027.818	128.492	125.999	-916.373	157.641	193.955	-1001.229	164.459	227.6	-785.432	42.914	195.66	-756.976	42.467	93.75	-956.137	34.132	34.267	-902.068	113.756	119.886	-778.54	386.468	49.823	-776.727	303.975	43.771	-873.175	49.414	350.327	-873.908	56.772	274.419	-975.763	56.064	312.302	-728.259	611.387	76.936	-722.703	693.094	66.96	-754.436	689.804	13.756	-947.201	646.964	309.884	-907.549	656.462	355.488	-882.366	577.414	360.345	-890.821	403.956	361.074	-921.579	327.431	334.992	-936.383	434.199	328.089	-820.007	389.131	1.735	-822.116	300.973	-3.236	-966.004	359.762	299.969	-764.105	602.675	22.069	-923.268	566.649	308.112	-1045.598	107.572	189.09	-954.831	98.472	140.906	-882.569	22.741	20.679	-934.346	30.061	114.839
4077	20.38	-671.459	1647.659	250.468	-743.234	1419.811	5.071	-935.259	1442.85	277.308	-773.743	1344.331	201.058	-733.049	922.023	101.803	-887.15	942.85	280.224	-941.162	967.897	84.251	-880.708	494.825	339.84	-799.8	486.042	261.814	-793.066	474.647	42.209	-853.643	466.768	136.439	-856.507	96.552	50.168	-714.896	53.355	178.386	-1024.067	124.19	134.622	-912.756	155.196	201.152	-997.079	161.868	235.445	-785.381	42.864	195.639	-756.968	42.442	93.806	-956.16	34.194	34.313	-902.073	113.694	120.214	-778.286	386.489	50.833	-776.467	303.949	44.61	-866.991	49.523	358.615	-868.627	55.93	282.844	-970	54.856	321.624	-727.737	611.343	78.365	-722.17	693.007	68.483	-753.99	689.886	15.376	-945.458	647.111	312.645	-905.325	656.715	358.231	-880.103	577.613	362.786	-887.736	404.449	364.77	-918.507	326.985	339.169	-934.143	433.542	331.667	-819.807	389.383	2.824	-822.211	301.266	-2.655	-962.639	358.112	302.508	-763.559	602.762	23.389	-919.393	566.486	311.814	-1041.333	103.955	198.359	-950.884	94.974	149.465	-882.567	22.849	20.688	-934.389	30.13	114.714
4078	20.385	-670.525	1647.672	252.681	-742.126	1419.944	7.587	-934.176	1442.628	279.871	-772.717	1344.171	203.423	-732.292	921.971	103.645	-885.994	942.945	282.468	-940.452	967.83	86.619	-878.881	494.875	342.458	-798.722	485.817	263.61	-792.701	474.699	43.467	-853.089	466.608	137.807	-856.518	96.649	50.418	-714.844	53.263	178.36	-1020.193	119.814	143.362	-909.044	152.705	208.372	-992.809	159.193	243.354	-785.335	42.817	195.591	-756.964	42.421	93.847	-956.186	34.227	34.376	-902.068	113.632	120.55	-778.044	386.505	51.832	-776.191	303.916	45.453	-860.752	49.652	366.932	-863.229	55.064	291.308	-964.157	53.639	330.974	-727.235	611.293	79.803	-721.594	692.979	70.087	-753.559	689.964	17.001	-943.717	647.187	315.344	-902.408	657.423	360.312	-875.402	580.19	365.513	-885.634	404.263	368.311	-915.334	326.398	343.305	-931.922	432.914	335.25	-819.643	389.594	3.888	-822.2	301.528	-1.958	-960.73	359.67	315.463	-763.198	602.829	24.854	-917.206	564.603	315.814	-1036.765	100.259	207.706	-946.78	91.444	158.152	-882.527	22.863	20.793	-934.438	30.216	114.579
4079	20.39	-669.581	1647.63	254.949	-741.033	1420.055	10.119	-933.075	1442.399	282.475	-771.695	1343.988	205.803	-731.574	921.943	105.546	-884.855	943.025	284.734	-939.736	967.757	89.013	-877.187	494.864	345.005	-797.76	485.507	265.367	-792.356	474.749	44.711	-852.549	466.439	139.155	-856.537	96.738	50.659	-714.796	53.191	178.301	-1016.231	115.389	152.199	-905.217	150.185	215.609	-988.436	156.419	251.338	-785.291	42.775	195.512	-756.966	42.404	93.873	-956.219	34.227	34.454	-902.056	113.57	120.887	-777.814	386.516	52.818	-775.897	303.88	46.29	-854.465	49.815	375.265	-857.718	54.185	299.777	-958.235	52.408	340.337	-726.751	611.237	81.247	-721.046	692.942	71.676	-753.143	690.04	18.63	-942.028	647.306	318.049	-900.319	657.503	362.791	-873.598	580.156	366.984	-882.587	404.523	370.612	-912.114	326.147	348.716	-929.913	431.985	338.522	-819.478	389.792	4.966	-822.152	301.722	-1.153	-958.046	356.987	317.131	-763.871	603.103	25.997	-915.666	565.017	317.953	-1031.613	96.112	217.121	-942.541	87.903	166.957	-882.571	22.925	20.831	-934.492	30.316	114.44
4080	20.395	-668.586	1647.603	257.215	-739.963	1420.147	12.664	-931.961	1442.166	285.115	-770.678	1343.787	208.2	-730.846	921.8	107.517	-883.729	943.087	287.022	-939.018	967.677	91.432	-875.631	494.787	347.479	-796.917	485.116	267.086	-792.028	474.795	45.94	-852.03	466.259	140.481	-856.564	96.817	50.89	-714.753	53.14	178.21	-1012.208	110.944	161.11	-901.261	147.66	222.85	-984	153.546	259.382	-785.25	42.74	195.409	-756.971	42.394	93.883	-956.261	34.192	34.546	-902.038	113.506	121.219	-777.594	386.521	53.791	-775.586	303.847	47.114	-848.134	50.021	383.598	-852.104	53.314	308.222	-952.232	51.167	349.701	-726.284	611.173	82.694	-720.605	692.866	73.209	-752.739	690.114	20.263	-940.461	647.468	320.501	-898.322	657.533	365.128	-872.069	579.794	368.72	-880.522	404.786	375.187	-908.907	325.8	353.85	-927.925	431.24	341.908	-819.303	389.97	5.985	-822.077	301.963	-0.308	-955.044	354.677	318.933	-762.522	602.866	28.008	-914.16	565.473	319.967	-1027.145	92.395	226.316	-938.186	84.357	175.874	-882.581	22.951	20.907	-934.552	30.424	114.303
4081	20.4	-667.624	1647.481	259.516	-738.918	1420.218	15.223	-930.835	1441.929	287.786	-769.665	1343.569	210.613	-730.117	921.802	109.425	-882.612	943.131	289.333	-938.3	967.593	93.876	-874.219	494.645	349.858	-796.197	484.649	268.769	-791.713	474.835	47.157	-851.533	466.07	141.785	-856.597	96.887	51.106	-714.715	53.107	178.099	-1008.135	106.511	170.07	-897.174	145.159	230.08	-979.537	150.585	267.457	-785.209	42.713	195.301	-756.978	42.39	93.877	-956.314	34.121	34.651	-902.018	113.442	121.538	-777.384	386.518	54.75	-775.264	303.816	47.918	-841.755	50.28	391.917	-846.4	52.47	316.627	-946.152	49.932	359.052	-725.836	611.1	84.145	-720.113	692.821	74.794	-752.345	690.186	21.898	-938.909	647.553	323.129	-896.472	657.492	367.41	-872.886	577.785	371.917	-877.512	405.271	378.021	-905.782	325.258	358.511	-925.579	431.316	347.75	-818.638	389.913	7.129	-821.958	302.147	0.47	-953.488	353.899	327.397	-762.023	603.037	29.382	-912.682	563.734	326.644	-1022.636	88.724	235.465	-933.728	80.799	184.906	-882.579	22.972	20.928	-934.613	30.529	114.176
